<?xml version="1.0" encoding="utf-8"?>
<!-- Generator: Adobe Illustrator 25.2.0, SVG Export Plug-In . SVG Version: 6.00 Build 0)  -->
<svg version="1.1" id="Layer_1" xmlns="http://www.w3.org/2000/svg" xmlns:xlink="http://www.w3.org/1999/xlink" x="0px" y="0px"
	 viewBox="0 0 876 709.1" style="enable-background:new 0 0 876 709.1;" xml:space="preserve">
<style type="text/css">
	.st0{fill:#3F3D56;}
	.st1{fill:#22C55E;}
	.st2{fill:#2F2E41;}
	.st3{fill:#8985A8;}
	.st4{opacity:0.1;enable-background:new    ;}
	.st5{fill:#F2F2F2;}
	.st6{fill:#FFB8B8;}
</style>
<rect class="st0" width="875" height="470.7"/>
<rect x="158.2" y="66.4" class="st1" width="7.7" height="12.3"/>
<rect x="184.4" y="63.3" class="st1" width="7.7" height="12.3"/>
<rect x="198.3" y="63.3" class="st1" width="7.7" height="12.3"/>
<rect x="198.3" y="100.3" class="st1" width="7.7" height="12.3"/>
<rect x="213.7" y="81.8" class="st1" width="7.7" height="12.3"/>
<rect x="213.7" y="101.9" class="st1" width="7.7" height="12.3"/>
<rect x="198.3" y="140.4" class="st1" width="7.7" height="12.3"/>
<rect x="213.7" y="160.5" class="st1" width="7.7" height="12.3"/>
<rect x="198.3" y="236.1" class="st1" width="7.7" height="12.3"/>
<rect x="184.4" y="160.5" class="st1" width="7.7" height="12.3"/>
<rect x="158.2" y="86.4" class="st1" width="7.7" height="12.3"/>
<rect x="158.2" y="279.3" class="st1" width="7.7" height="12.3"/>
<rect x="158.2" y="319.4" class="st1" width="7.7" height="12.3"/>
<rect x="158.2" y="339.5" class="st1" width="7.7" height="12.3"/>
<rect x="155.1" y="108" class="st1" width="10.8" height="1.5"/>
<rect x="196.8" y="126.5" class="st1" width="10.8" height="1.5"/>
<rect x="155.1" y="206.8" class="st1" width="10.8" height="1.5"/>
<rect x="155.1" y="223.8" class="st1" width="10.8" height="1.5"/>
<rect x="196.8" y="322.5" class="st1" width="10.8" height="1.5"/>
<rect x="184.4" y="359.6" class="st1" width="10.8" height="1.5"/>
<polygon class="st1" points="158.2,121.9 158.2,125 161.3,125 161.3,131.2 158.2,131.2 158.2,134.3 165.9,134.3 165.9,121.9 "/>
<polygon class="st1" points="184.4,100.3 184.4,103.4 187.5,103.4 187.5,109.6 184.4,109.6 184.4,112.7 192.1,112.7 192.1,100.3 "/>
<polygon class="st1" points="213.7,120.4 213.7,123.5 216.8,123.5 216.8,129.6 213.7,129.6 213.7,132.7 221.5,132.7 221.5,120.4 "/>
<polygon class="st1" points="213.7,180.6 213.7,183.6 216.8,183.6 216.8,189.8 213.7,189.8 213.7,192.9 221.5,192.9 221.5,180.6 "/>
<polygon class="st1" points="213.7,200.6 213.7,203.7 216.8,203.7 216.8,209.9 213.7,209.9 213.7,213 221.5,213 221.5,200.6 "/>
<polygon class="st1" points="213.7,138.9 213.7,142 216.8,142 216.8,148.1 213.7,148.1 213.7,151.2 221.5,151.2 221.5,138.9 "/>
<polygon class="st1" points="198.3,81.8 198.3,84.9 201.4,84.9 201.4,91 198.3,91 198.3,94.1 206,94.1 206,81.8 "/>
<rect x="198.3" y="180.6" class="st1" width="7.7" height="12.3"/>
<rect x="198.3" y="217.6" class="st1" width="7.7" height="12.3"/>
<polygon class="st1" points="198.3,199.1 198.3,202.2 201.4,202.2 201.4,208.3 198.3,208.3 198.3,211.4 206,211.4 206,199.1 "/>
<polygon class="st1" points="184.4,120.4 184.4,123.5 187.5,123.5 187.5,129.6 184.4,129.6 184.4,132.7 192.1,132.7 192.1,120.4 "/>
<polygon class="st1" points="184.4,140.4 184.4,143.5 187.5,143.5 187.5,149.7 184.4,149.7 184.4,152.8 192.1,152.8 192.1,140.4 "/>
<rect x="184.4" y="200.6" class="st1" width="7.7" height="12.3"/>
<polygon class="st1" points="184.4,180.6 184.4,183.6 187.5,183.6 187.5,189.8 184.4,189.8 184.4,192.9 192.1,192.9 192.1,180.6 "/>
<rect x="184.4" y="240.7" class="st1" width="7.7" height="12.3"/>
<polygon class="st1" points="184.4,220.7 184.4,223.8 187.5,223.8 187.5,229.9 184.4,229.9 184.4,233 192.1,233 192.1,220.7 "/>
<rect x="184.4" y="280.9" class="st1" width="7.7" height="12.3"/>
<rect x="198.3" y="277.8" class="st1" width="7.7" height="12.3"/>
<polygon class="st1" points="184.4,260.8 184.4,263.9 187.5,263.9 187.5,270.1 184.4,270.1 184.4,273.1 192.1,273.1 192.1,260.8 "/>
<polygon class="st1" points="213.7,260.8 213.7,263.9 216.8,263.9 216.8,270.1 213.7,270.1 213.7,273.1 221.5,273.1 221.5,260.8 "/>
<rect x="292.4" y="81.8" class="st1" width="7.7" height="12.3"/>
<rect x="292.4" y="101.9" class="st1" width="7.7" height="12.3"/>
<rect x="292.4" y="160.5" class="st1" width="7.7" height="12.3"/>
<polygon class="st1" points="292.4,120.4 292.4,123.5 295.5,123.5 295.5,129.6 292.4,129.6 292.4,132.7 300.2,132.7 300.2,120.4 "/>
<polygon class="st1" points="292.4,180.6 292.4,183.6 295.5,183.6 295.5,189.8 292.4,189.8 292.4,192.9 300.2,192.9 300.2,180.6 "/>
<polygon class="st1" points="292.4,200.6 292.4,203.7 295.5,203.7 295.5,209.9 292.4,209.9 292.4,213 300.2,213 300.2,200.6 "/>
<polygon class="st1" points="292.4,138.9 292.4,142 295.5,142 295.5,148.1 292.4,148.1 292.4,151.2 300.2,151.2 300.2,138.9 "/>
<polygon class="st1" points="292.4,260.8 292.4,263.9 295.5,263.9 295.5,270.1 292.4,270.1 292.4,273.1 300.2,273.1 300.2,260.8 "/>
<rect x="184.4" y="321" class="st1" width="7.7" height="12.3"/>
<rect x="198.3" y="297.8" class="st1" width="7.7" height="12.3"/>
<rect x="184.4" y="373.5" class="st1" width="7.7" height="12.3"/>
<rect x="198.3" y="336.4" class="st1" width="7.7" height="12.3"/>
<polygon class="st1" points="184.4,300.9 184.4,304 187.5,304 187.5,310.2 184.4,310.2 184.4,313.3 192.1,313.3 192.1,300.9 "/>
<polygon class="st1" points="184.4,395.1 184.4,398.1 187.5,398.1 187.5,404.3 184.4,404.3 184.4,407.4 192.1,407.4 192.1,395.1 "/>
<rect x="269.3" y="63.3" class="st1" width="7.7" height="12.3"/>
<rect x="269.3" y="160.5" class="st1" width="7.7" height="12.3"/>
<rect x="269.3" y="359.6" class="st1" width="10.8" height="1.5"/>
<polygon class="st1" points="269.3,100.3 269.3,103.4 272.4,103.4 272.4,109.6 269.3,109.6 269.3,112.7 277,112.7 277,100.3 "/>
<polygon class="st1" points="269.3,120.4 269.3,123.5 272.4,123.5 272.4,129.6 269.3,129.6 269.3,132.7 277,132.7 277,120.4 "/>
<polygon class="st1" points="269.3,140.4 269.3,143.5 272.4,143.5 272.4,149.7 269.3,149.7 269.3,152.8 277,152.8 277,140.4 "/>
<rect x="269.3" y="200.6" class="st1" width="7.7" height="12.3"/>
<polygon class="st1" points="269.3,180.6 269.3,183.6 272.4,183.6 272.4,189.8 269.3,189.8 269.3,192.9 277,192.9 277,180.6 "/>
<rect x="269.3" y="240.7" class="st1" width="7.7" height="12.3"/>
<polygon class="st1" points="269.3,220.7 269.3,223.8 272.4,223.8 272.4,229.9 269.3,229.9 269.3,233 277,233 277,220.7 "/>
<rect x="269.3" y="280.9" class="st1" width="7.7" height="12.3"/>
<polygon class="st1" points="269.3,260.8 269.3,263.9 272.4,263.9 272.4,270.1 269.3,270.1 269.3,273.1 277,273.1 277,260.8 "/>
<rect x="269.3" y="321" class="st1" width="7.7" height="12.3"/>
<rect x="269.3" y="373.5" class="st1" width="7.7" height="12.3"/>
<polygon class="st1" points="269.3,300.9 269.3,304 272.4,304 272.4,310.2 269.3,310.2 269.3,313.3 277,313.3 277,300.9 "/>
<polygon class="st1" points="269.3,395.1 269.3,398.1 272.4,398.1 272.4,404.3 269.3,404.3 269.3,407.4 277,407.4 277,395.1 "/>
<rect x="306.3" y="63.3" class="st1" width="7.7" height="12.3"/>
<rect x="306.3" y="160.5" class="st1" width="7.7" height="12.3"/>
<rect x="306.3" y="359.6" class="st1" width="10.8" height="1.5"/>
<polygon class="st1" points="306.3,100.3 306.3,103.4 309.4,103.4 309.4,109.6 306.3,109.6 306.3,112.7 314,112.7 314,100.3 "/>
<polygon class="st1" points="306.3,120.4 306.3,123.5 309.4,123.5 309.4,129.6 306.3,129.6 306.3,132.7 314,132.7 314,120.4 "/>
<polygon class="st1" points="306.3,140.4 306.3,143.5 309.4,143.5 309.4,149.7 306.3,149.7 306.3,152.8 314,152.8 314,140.4 "/>
<rect x="306.3" y="200.6" class="st1" width="7.7" height="12.3"/>
<polygon class="st1" points="306.3,180.6 306.3,183.6 309.4,183.6 309.4,189.8 306.3,189.8 306.3,192.9 314,192.9 314,180.6 "/>
<rect x="306.3" y="240.7" class="st1" width="7.7" height="12.3"/>
<polygon class="st1" points="306.3,220.7 306.3,223.8 309.4,223.8 309.4,229.9 306.3,229.9 306.3,233 314,233 314,220.7 "/>
<rect x="306.3" y="280.9" class="st1" width="7.7" height="12.3"/>
<polygon class="st1" points="306.3,260.8 306.3,263.9 309.4,263.9 309.4,270.1 306.3,270.1 306.3,273.1 314,273.1 314,260.8 "/>
<rect x="306.3" y="321" class="st1" width="7.7" height="12.3"/>
<rect x="306.3" y="373.5" class="st1" width="7.7" height="12.3"/>
<polygon class="st1" points="306.3,300.9 306.3,304 309.4,304 309.4,310.2 306.3,310.2 306.3,313.3 314,313.3 314,300.9 "/>
<polygon class="st1" points="306.3,395.1 306.3,398.1 309.4,398.1 309.4,404.3 306.3,404.3 306.3,407.4 314,407.4 314,395.1 "/>
<polygon class="st1" points="198.3,373.5 198.3,376.5 201.4,376.5 201.4,382.7 198.3,382.7 198.3,385.8 206,385.8 206,373.5 "/>
<polygon class="st1" points="198.3,393.5 198.3,396.6 201.4,396.6 201.4,402.8 198.3,402.8 198.3,405.9 206,405.9 206,393.5 "/>
<polygon class="st1" points="158.2,160.5 158.2,163.6 161.3,163.6 161.3,169.8 158.2,169.8 158.2,172.8 165.9,172.8 165.9,160.5 "/>
<polygon class="st1" points="158.2,239.2 158.2,242.3 161.3,242.3 161.3,248.5 158.2,248.5 158.2,251.5 165.9,251.5 165.9,239.2 "/>
<polygon class="st1" points="158.2,259.3 158.2,262.3 161.3,262.3 161.3,268.5 158.2,268.5 158.2,271.6 165.9,271.6 165.9,259.3 "/>
<polygon class="st1" points="158.2,299.4 158.2,302.5 161.3,302.5 161.3,308.6 158.2,308.6 158.2,311.7 165.9,311.7 165.9,299.4 "/>
<polygon class="st1" points="158.2,356.5 158.2,359.6 161.3,359.6 161.3,365.7 158.2,365.7 158.2,368.8 165.9,368.8 165.9,356.5 "/>
<polygon class="st1" points="158.2,373.5 158.2,376.5 161.3,376.5 161.3,382.7 158.2,382.7 158.2,385.8 165.9,385.8 165.9,373.5 "/>
<rect x="238.4" y="66.4" class="st1" width="7.7" height="12.3"/>
<rect x="238.4" y="86.4" class="st1" width="7.7" height="12.3"/>
<rect x="235.3" y="108" class="st1" width="10.8" height="1.5"/>
<rect x="235.3" y="206.8" class="st1" width="10.8" height="1.5"/>
<rect x="235.3" y="223.8" class="st1" width="10.8" height="1.5"/>
<polygon class="st1" points="238.4,121.9 238.4,125 241.5,125 241.5,131.2 238.4,131.2 238.4,134.3 246.1,134.3 246.1,121.9 "/>
<polygon class="st1" points="238.4,160.5 238.4,163.6 241.5,163.6 241.5,169.8 238.4,169.8 238.4,172.8 246.1,172.8 246.1,160.5 "/>
<polygon class="st1" points="238.4,239.2 238.4,242.3 241.5,242.3 241.5,248.5 238.4,248.5 238.4,251.5 246.1,251.5 246.1,239.2 "/>
<rect x="326.4" y="200.6" class="st1" width="7.7" height="12.3"/>
<rect x="326.4" y="220.7" class="st1" width="7.7" height="12.3"/>
<rect x="323.3" y="242.3" class="st1" width="10.8" height="1.5"/>
<rect x="323.3" y="341" class="st1" width="10.8" height="1.5"/>
<rect x="323.3" y="358" class="st1" width="10.8" height="1.5"/>
<polygon class="st1" points="326.4,256.2 326.4,259.3 329.5,259.3 329.5,265.4 326.4,265.4 326.4,268.5 334.1,268.5 334.1,256.2 "/>
<polygon class="st1" points="326.4,294.8 326.4,297.8 329.5,297.8 329.5,304 326.4,304 326.4,307.1 334.1,307.1 334.1,294.8 "/>
<polygon class="st1" points="326.4,373.5 326.4,376.5 329.5,376.5 329.5,382.7 326.4,382.7 326.4,385.8 334.1,385.8 334.1,373.5 "/>
<rect x="351.1" y="66.4" class="st1" width="7.7" height="12.3"/>
<rect x="377.3" y="63.3" class="st1" width="7.7" height="12.3"/>
<rect x="391.2" y="63.3" class="st1" width="7.7" height="12.3"/>
<rect x="391.2" y="100.3" class="st1" width="7.7" height="12.3"/>
<rect x="406.6" y="81.8" class="st1" width="7.7" height="12.3"/>
<rect x="406.6" y="101.9" class="st1" width="7.7" height="12.3"/>
<rect x="391.2" y="140.4" class="st1" width="7.7" height="12.3"/>
<rect x="406.6" y="160.5" class="st1" width="7.7" height="12.3"/>
<rect x="391.2" y="236.1" class="st1" width="7.7" height="12.3"/>
<rect x="377.3" y="160.5" class="st1" width="7.7" height="12.3"/>
<rect x="351.1" y="86.4" class="st1" width="7.7" height="12.3"/>
<rect x="351.1" y="279.3" class="st1" width="7.7" height="12.3"/>
<rect x="351.1" y="319.4" class="st1" width="7.7" height="12.3"/>
<rect x="351.1" y="339.5" class="st1" width="7.7" height="12.3"/>
<rect x="348" y="108" class="st1" width="10.8" height="1.5"/>
<rect x="389.7" y="126.5" class="st1" width="10.8" height="1.5"/>
<rect x="348" y="206.8" class="st1" width="10.8" height="1.5"/>
<rect x="348" y="223.8" class="st1" width="10.8" height="1.5"/>
<rect x="389.7" y="322.5" class="st1" width="10.8" height="1.5"/>
<rect x="377.3" y="359.6" class="st1" width="10.8" height="1.5"/>
<polygon class="st1" points="351.1,121.9 351.1,125 354.2,125 354.2,131.2 351.1,131.2 351.1,134.3 358.8,134.3 358.8,121.9 "/>
<polygon class="st1" points="377.3,100.3 377.3,103.4 380.4,103.4 380.4,109.6 377.3,109.6 377.3,112.7 385,112.7 385,100.3 "/>
<polygon class="st1" points="406.6,120.4 406.6,123.5 409.7,123.5 409.7,129.6 406.6,129.6 406.6,132.7 414.4,132.7 414.4,120.4 "/>
<polygon class="st1" points="406.6,180.6 406.6,183.6 409.7,183.6 409.7,189.8 406.6,189.8 406.6,192.9 414.4,192.9 414.4,180.6 "/>
<polygon class="st1" points="406.6,200.6 406.6,203.7 409.7,203.7 409.7,209.9 406.6,209.9 406.6,213 414.4,213 414.4,200.6 "/>
<polygon class="st1" points="406.6,138.9 406.6,142 409.7,142 409.7,148.1 406.6,148.1 406.6,151.2 414.4,151.2 414.4,138.9 "/>
<polygon class="st1" points="391.2,81.8 391.2,84.9 394.3,84.9 394.3,91 391.2,91 391.2,94.1 398.9,94.1 398.9,81.8 "/>
<rect x="391.2" y="180.6" class="st1" width="7.7" height="12.3"/>
<rect x="391.2" y="217.6" class="st1" width="7.7" height="12.3"/>
<polygon class="st1" points="391.2,199.1 391.2,202.2 394.3,202.2 394.3,208.3 391.2,208.3 391.2,211.4 398.9,211.4 398.9,199.1 "/>
<polygon class="st1" points="377.3,120.4 377.3,123.5 380.4,123.5 380.4,129.6 377.3,129.6 377.3,132.7 385,132.7 385,120.4 "/>
<polygon class="st1" points="377.3,140.4 377.3,143.5 380.4,143.5 380.4,149.7 377.3,149.7 377.3,152.8 385,152.8 385,140.4 "/>
<rect x="377.3" y="200.6" class="st1" width="7.7" height="12.3"/>
<polygon class="st1" points="377.3,180.6 377.3,183.6 380.4,183.6 380.4,189.8 377.3,189.8 377.3,192.9 385,192.9 385,180.6 "/>
<rect x="377.3" y="240.7" class="st1" width="7.7" height="12.3"/>
<polygon class="st1" points="377.3,220.7 377.3,223.8 380.4,223.8 380.4,229.9 377.3,229.9 377.3,233 385,233 385,220.7 "/>
<rect x="377.3" y="280.9" class="st1" width="7.7" height="12.3"/>
<rect x="391.2" y="277.8" class="st1" width="7.7" height="12.3"/>
<polygon class="st1" points="377.3,260.8 377.3,263.9 380.4,263.9 380.4,270.1 377.3,270.1 377.3,273.1 385,273.1 385,260.8 "/>
<polygon class="st1" points="406.6,260.8 406.6,263.9 409.7,263.9 409.7,270.1 406.6,270.1 406.6,273.1 414.4,273.1 414.4,260.8 "/>
<rect x="485.3" y="81.8" class="st1" width="7.7" height="12.3"/>
<rect x="485.3" y="101.9" class="st1" width="7.7" height="12.3"/>
<rect x="485.3" y="160.5" class="st1" width="7.7" height="12.3"/>
<polygon class="st1" points="485.3,120.4 485.3,123.5 488.4,123.5 488.4,129.6 485.3,129.6 485.3,132.7 493.1,132.7 493.1,120.4 "/>
<polygon class="st1" points="485.3,180.6 485.3,183.6 488.4,183.6 488.4,189.8 485.3,189.8 485.3,192.9 493.1,192.9 493.1,180.6 "/>
<polygon class="st1" points="485.3,200.6 485.3,203.7 488.4,203.7 488.4,209.9 485.3,209.9 485.3,213 493.1,213 493.1,200.6 "/>
<polygon class="st1" points="485.3,138.9 485.3,142 488.4,142 488.4,148.1 485.3,148.1 485.3,151.2 493.1,151.2 493.1,138.9 "/>
<polygon class="st1" points="485.3,260.8 485.3,263.9 488.4,263.9 488.4,270.1 485.3,270.1 485.3,273.1 493.1,273.1 493.1,260.8 "/>
<rect x="377.3" y="321" class="st1" width="7.7" height="12.3"/>
<rect x="391.2" y="297.8" class="st1" width="7.7" height="12.3"/>
<rect x="377.3" y="373.5" class="st1" width="7.7" height="12.3"/>
<rect x="391.2" y="336.4" class="st1" width="7.7" height="12.3"/>
<polygon class="st1" points="377.3,300.9 377.3,304 380.4,304 380.4,310.2 377.3,310.2 377.3,313.3 385,313.3 385,300.9 "/>
<polygon class="st1" points="377.3,395.1 377.3,398.1 380.4,398.1 380.4,404.3 377.3,404.3 377.3,407.4 385,407.4 385,395.1 "/>
<rect x="462.2" y="63.3" class="st1" width="7.7" height="12.3"/>
<rect x="462.2" y="160.5" class="st1" width="7.7" height="12.3"/>
<rect x="462.2" y="359.6" class="st1" width="10.8" height="1.5"/>
<polygon class="st1" points="462.2,100.3 462.2,103.4 465.3,103.4 465.3,109.6 462.2,109.6 462.2,112.7 469.9,112.7 469.9,100.3 "/>
<polygon class="st1" points="462.2,120.4 462.2,123.5 465.3,123.5 465.3,129.6 462.2,129.6 462.2,132.7 469.9,132.7 469.9,120.4 "/>
<polygon class="st1" points="462.2,140.4 462.2,143.5 465.3,143.5 465.3,149.7 462.2,149.7 462.2,152.8 469.9,152.8 469.9,140.4 "/>
<rect x="462.2" y="200.6" class="st1" width="7.7" height="12.3"/>
<polygon class="st1" points="462.2,180.6 462.2,183.6 465.3,183.6 465.3,189.8 462.2,189.8 462.2,192.9 469.9,192.9 469.9,180.6 "/>
<rect x="462.2" y="240.7" class="st1" width="7.7" height="12.3"/>
<polygon class="st1" points="462.2,220.7 462.2,223.8 465.3,223.8 465.3,229.9 462.2,229.9 462.2,233 469.9,233 469.9,220.7 "/>
<rect x="462.2" y="280.9" class="st1" width="7.7" height="12.3"/>
<polygon class="st1" points="462.2,260.8 462.2,263.9 465.3,263.9 465.3,270.1 462.2,270.1 462.2,273.1 469.9,273.1 469.9,260.8 "/>
<rect x="462.2" y="321" class="st1" width="7.7" height="12.3"/>
<rect x="462.2" y="373.5" class="st1" width="7.7" height="12.3"/>
<polygon class="st1" points="462.2,300.9 462.2,304 465.3,304 465.3,310.2 462.2,310.2 462.2,313.3 469.9,313.3 469.9,300.9 "/>
<polygon class="st1" points="462.2,395.1 462.2,398.1 465.3,398.1 465.3,404.3 462.2,404.3 462.2,407.4 469.9,407.4 469.9,395.1 "/>
<rect x="499.2" y="63.3" class="st1" width="7.7" height="12.3"/>
<rect x="499.2" y="160.5" class="st1" width="7.7" height="12.3"/>
<rect x="499.2" y="359.6" class="st1" width="10.8" height="1.5"/>
<polygon class="st1" points="499.2,100.3 499.2,103.4 502.3,103.4 502.3,109.6 499.2,109.6 499.2,112.7 506.9,112.7 506.9,100.3 "/>
<polygon class="st1" points="499.2,120.4 499.2,123.5 502.3,123.5 502.3,129.6 499.2,129.6 499.2,132.7 506.9,132.7 506.9,120.4 "/>
<polygon class="st1" points="499.2,140.4 499.2,143.5 502.3,143.5 502.3,149.7 499.2,149.7 499.2,152.8 506.9,152.8 506.9,140.4 "/>
<rect x="499.2" y="200.6" class="st1" width="7.7" height="12.3"/>
<polygon class="st1" points="499.2,180.6 499.2,183.6 502.3,183.6 502.3,189.8 499.2,189.8 499.2,192.9 506.9,192.9 506.9,180.6 "/>
<rect x="499.2" y="240.7" class="st1" width="7.7" height="12.3"/>
<polygon class="st1" points="499.2,220.7 499.2,223.8 502.3,223.8 502.3,229.9 499.2,229.9 499.2,233 506.9,233 506.9,220.7 "/>
<rect x="499.2" y="280.9" class="st1" width="7.7" height="12.3"/>
<polygon class="st1" points="499.2,260.8 499.2,263.9 502.3,263.9 502.3,270.1 499.2,270.1 499.2,273.1 506.9,273.1 506.9,260.8 "/>
<rect x="499.2" y="321" class="st1" width="7.7" height="12.3"/>
<rect x="499.2" y="373.5" class="st1" width="7.7" height="12.3"/>
<polygon class="st1" points="499.2,300.9 499.2,304 502.3,304 502.3,310.2 499.2,310.2 499.2,313.3 506.9,313.3 506.9,300.9 "/>
<polygon class="st1" points="499.2,395.1 499.2,398.1 502.3,398.1 502.3,404.3 499.2,404.3 499.2,407.4 506.9,407.4 506.9,395.1 "/>
<polygon class="st1" points="391.2,373.5 391.2,376.5 394.3,376.5 394.3,382.7 391.2,382.7 391.2,385.8 398.9,385.8 398.9,373.5 "/>
<polygon class="st1" points="391.2,393.5 391.2,396.6 394.3,396.6 394.3,402.8 391.2,402.8 391.2,405.9 398.9,405.9 398.9,393.5 "/>
<polygon class="st1" points="351.1,160.5 351.1,163.6 354.2,163.6 354.2,169.8 351.1,169.8 351.1,172.8 358.8,172.8 358.8,160.5 "/>
<polygon class="st1" points="351.1,239.2 351.1,242.3 354.2,242.3 354.2,248.5 351.1,248.5 351.1,251.5 358.8,251.5 358.8,239.2 "/>
<polygon class="st1" points="351.1,259.3 351.1,262.3 354.2,262.3 354.2,268.5 351.1,268.5 351.1,271.6 358.8,271.6 358.8,259.3 "/>
<polygon class="st1" points="351.1,299.4 351.1,302.5 354.2,302.5 354.2,308.6 351.1,308.6 351.1,311.7 358.8,311.7 358.8,299.4 "/>
<polygon class="st1" points="351.1,356.5 351.1,359.6 354.2,359.6 354.2,365.7 351.1,365.7 351.1,368.8 358.8,368.8 358.8,356.5 "/>
<polygon class="st1" points="351.1,373.5 351.1,376.5 354.2,376.5 354.2,382.7 351.1,382.7 351.1,385.8 358.8,385.8 358.8,373.5 "/>
<rect x="431.3" y="66.4" class="st1" width="7.7" height="12.3"/>
<rect x="431.3" y="86.4" class="st1" width="7.7" height="12.3"/>
<rect x="428.2" y="108" class="st1" width="10.8" height="1.5"/>
<rect x="428.2" y="206.8" class="st1" width="10.8" height="1.5"/>
<rect x="428.2" y="223.8" class="st1" width="10.8" height="1.5"/>
<polygon class="st1" points="431.3,121.9 431.3,125 434.4,125 434.4,131.2 431.3,131.2 431.3,134.3 439,134.3 439,121.9 "/>
<polygon class="st1" points="431.3,160.5 431.3,163.6 434.4,163.6 434.4,169.8 431.3,169.8 431.3,172.8 439,172.8 439,160.5 "/>
<polygon class="st1" points="431.3,239.2 431.3,242.3 434.4,242.3 434.4,248.5 431.3,248.5 431.3,251.5 439,251.5 439,239.2 "/>
<rect x="519.3" y="200.6" class="st1" width="7.7" height="12.3"/>
<rect x="519.3" y="220.7" class="st1" width="7.7" height="12.3"/>
<rect x="516.2" y="242.3" class="st1" width="10.8" height="1.5"/>
<rect x="516.2" y="341" class="st1" width="10.8" height="1.5"/>
<rect x="516.2" y="358" class="st1" width="10.8" height="1.5"/>
<polygon class="st1" points="519.3,256.2 519.3,259.3 522.4,259.3 522.4,265.4 519.3,265.4 519.3,268.5 527,268.5 527,256.2 "/>
<polygon class="st1" points="519.3,294.8 519.3,297.8 522.4,297.8 522.4,304 519.3,304 519.3,307.1 527,307.1 527,294.8 "/>
<polygon class="st1" points="519.3,373.5 519.3,376.5 522.4,376.5 522.4,382.7 519.3,382.7 519.3,385.8 527,385.8 527,373.5 "/>
<rect x="544" y="66.4" class="st1" width="7.7" height="12.3"/>
<rect x="570.2" y="63.3" class="st1" width="7.7" height="12.3"/>
<rect x="584.1" y="63.3" class="st1" width="7.7" height="12.3"/>
<rect x="584.1" y="100.3" class="st1" width="7.7" height="12.3"/>
<rect x="599.5" y="81.8" class="st1" width="7.7" height="12.3"/>
<rect x="599.5" y="101.9" class="st1" width="7.7" height="12.3"/>
<rect x="584.1" y="140.4" class="st1" width="7.7" height="12.3"/>
<rect x="599.5" y="160.5" class="st1" width="7.7" height="12.3"/>
<rect x="584.1" y="236.1" class="st1" width="7.7" height="12.3"/>
<rect x="570.2" y="160.5" class="st1" width="7.7" height="12.3"/>
<rect x="544" y="86.4" class="st1" width="7.7" height="12.3"/>
<rect x="544" y="279.3" class="st1" width="7.7" height="12.3"/>
<rect x="544" y="319.4" class="st1" width="7.7" height="12.3"/>
<rect x="544" y="339.5" class="st1" width="7.7" height="12.3"/>
<rect x="540.9" y="108" class="st1" width="10.8" height="1.5"/>
<rect x="582.6" y="126.5" class="st1" width="10.8" height="1.5"/>
<rect x="540.9" y="206.8" class="st1" width="10.8" height="1.5"/>
<rect x="540.9" y="223.8" class="st1" width="10.8" height="1.5"/>
<rect x="582.6" y="322.5" class="st1" width="10.8" height="1.5"/>
<rect x="570.2" y="359.6" class="st1" width="10.8" height="1.5"/>
<polygon class="st1" points="544,121.9 544,125 547.1,125 547.1,131.2 544,131.2 544,134.3 551.7,134.3 551.7,121.9 "/>
<polygon class="st1" points="570.2,100.3 570.2,103.4 573.3,103.4 573.3,109.6 570.2,109.6 570.2,112.7 577.9,112.7 577.9,100.3 "/>
<polygon class="st1" points="599.5,120.4 599.5,123.5 602.6,123.5 602.6,129.6 599.5,129.6 599.5,132.7 607.3,132.7 607.3,120.4 "/>
<polygon class="st1" points="599.5,180.6 599.5,183.6 602.6,183.6 602.6,189.8 599.5,189.8 599.5,192.9 607.3,192.9 607.3,180.6 "/>
<polygon class="st1" points="599.5,200.6 599.5,203.7 602.6,203.7 602.6,209.9 599.5,209.9 599.5,213 607.3,213 607.3,200.6 "/>
<polygon class="st1" points="599.5,138.9 599.5,142 602.6,142 602.6,148.1 599.5,148.1 599.5,151.2 607.3,151.2 607.3,138.9 "/>
<polygon class="st1" points="584.1,81.8 584.1,84.9 587.2,84.9 587.2,91 584.1,91 584.1,94.1 591.8,94.1 591.8,81.8 "/>
<rect x="584.1" y="180.6" class="st1" width="7.7" height="12.3"/>
<rect x="584.1" y="217.6" class="st1" width="7.7" height="12.3"/>
<polygon class="st1" points="584.1,199.1 584.1,202.2 587.2,202.2 587.2,208.3 584.1,208.3 584.1,211.4 591.8,211.4 591.8,199.1 "/>
<polygon class="st1" points="570.2,120.4 570.2,123.5 573.3,123.5 573.3,129.6 570.2,129.6 570.2,132.7 577.9,132.7 577.9,120.4 "/>
<polygon class="st1" points="570.2,140.4 570.2,143.5 573.3,143.5 573.3,149.7 570.2,149.7 570.2,152.8 577.9,152.8 577.9,140.4 "/>
<rect x="570.2" y="200.6" class="st1" width="7.7" height="12.3"/>
<polygon class="st1" points="570.2,180.6 570.2,183.6 573.3,183.6 573.3,189.8 570.2,189.8 570.2,192.9 577.9,192.9 577.9,180.6 "/>
<rect x="570.2" y="240.7" class="st1" width="7.7" height="12.3"/>
<polygon class="st1" points="570.2,220.7 570.2,223.8 573.3,223.8 573.3,229.9 570.2,229.9 570.2,233 577.9,233 577.9,220.7 "/>
<rect x="570.2" y="280.9" class="st1" width="7.7" height="12.3"/>
<rect x="584.1" y="277.8" class="st1" width="7.7" height="12.3"/>
<polygon class="st1" points="570.2,260.8 570.2,263.9 573.3,263.9 573.3,270.1 570.2,270.1 570.2,273.1 577.9,273.1 577.9,260.8 "/>
<polygon class="st1" points="599.5,260.8 599.5,263.9 602.6,263.9 602.6,270.1 599.5,270.1 599.5,273.1 607.3,273.1 607.3,260.8 "/>
<rect x="678.2" y="81.8" class="st1" width="7.7" height="12.3"/>
<rect x="678.2" y="101.9" class="st1" width="7.7" height="12.3"/>
<rect x="678.2" y="160.5" class="st1" width="7.7" height="12.3"/>
<polygon class="st1" points="678.2,120.4 678.2,123.5 681.3,123.5 681.3,129.6 678.2,129.6 678.2,132.7 686,132.7 686,120.4 "/>
<polygon class="st1" points="678.2,180.6 678.2,183.6 681.3,183.6 681.3,189.8 678.2,189.8 678.2,192.9 686,192.9 686,180.6 "/>
<polygon class="st1" points="678.2,200.6 678.2,203.7 681.3,203.7 681.3,209.9 678.2,209.9 678.2,213 686,213 686,200.6 "/>
<polygon class="st1" points="678.2,138.9 678.2,142 681.3,142 681.3,148.1 678.2,148.1 678.2,151.2 686,151.2 686,138.9 "/>
<polygon class="st1" points="678.2,260.8 678.2,263.9 681.3,263.9 681.3,270.1 678.2,270.1 678.2,273.1 686,273.1 686,260.8 "/>
<rect x="570.2" y="321" class="st1" width="7.7" height="12.3"/>
<rect x="584.1" y="297.8" class="st1" width="7.7" height="12.3"/>
<rect x="570.2" y="373.5" class="st1" width="7.7" height="12.3"/>
<rect x="584.1" y="336.4" class="st1" width="7.7" height="12.3"/>
<polygon class="st1" points="570.2,300.9 570.2,304 573.3,304 573.3,310.2 570.2,310.2 570.2,313.3 577.9,313.3 577.9,300.9 "/>
<polygon class="st1" points="570.2,395.1 570.2,398.1 573.3,398.1 573.3,404.3 570.2,404.3 570.2,407.4 577.9,407.4 577.9,395.1 "/>
<rect x="655.1" y="63.3" class="st1" width="7.7" height="12.3"/>
<rect x="655.1" y="160.5" class="st1" width="7.7" height="12.3"/>
<rect x="655.1" y="359.6" class="st1" width="10.8" height="1.5"/>
<polygon class="st1" points="655.1,100.3 655.1,103.4 658.2,103.4 658.2,109.6 655.1,109.6 655.1,112.7 662.8,112.7 662.8,100.3 "/>
<polygon class="st1" points="655.1,120.4 655.1,123.5 658.2,123.5 658.2,129.6 655.1,129.6 655.1,132.7 662.8,132.7 662.8,120.4 "/>
<polygon class="st1" points="655.1,140.4 655.1,143.5 658.2,143.5 658.2,149.7 655.1,149.7 655.1,152.8 662.8,152.8 662.8,140.4 "/>
<rect x="655.1" y="200.6" class="st1" width="7.7" height="12.3"/>
<polygon class="st1" points="655.1,180.6 655.1,183.6 658.2,183.6 658.2,189.8 655.1,189.8 655.1,192.9 662.8,192.9 662.8,180.6 "/>
<rect x="655.1" y="240.7" class="st1" width="7.7" height="12.3"/>
<polygon class="st1" points="655.1,220.7 655.1,223.8 658.2,223.8 658.2,229.9 655.1,229.9 655.1,233 662.8,233 662.8,220.7 "/>
<rect x="655.1" y="280.9" class="st1" width="7.7" height="12.3"/>
<polygon class="st1" points="655.1,260.8 655.1,263.9 658.2,263.9 658.2,270.1 655.1,270.1 655.1,273.1 662.8,273.1 662.8,260.8 "/>
<rect x="655.1" y="321" class="st1" width="7.7" height="12.3"/>
<rect x="655.1" y="373.5" class="st1" width="7.7" height="12.3"/>
<polygon class="st1" points="655.1,300.9 655.1,304 658.2,304 658.2,310.2 655.1,310.2 655.1,313.3 662.8,313.3 662.8,300.9 "/>
<polygon class="st1" points="655.1,395.1 655.1,398.1 658.2,398.1 658.2,404.3 655.1,404.3 655.1,407.4 662.8,407.4 662.8,395.1 "/>
<rect x="692.1" y="63.3" class="st1" width="7.7" height="12.3"/>
<rect x="692.1" y="160.5" class="st1" width="7.7" height="12.3"/>
<rect x="692.1" y="359.6" class="st1" width="10.8" height="1.5"/>
<polygon class="st1" points="692.1,100.3 692.1,103.4 695.2,103.4 695.2,109.6 692.1,109.6 692.1,112.7 699.8,112.7 699.8,100.3 "/>
<polygon class="st1" points="692.1,120.4 692.1,123.5 695.2,123.5 695.2,129.6 692.1,129.6 692.1,132.7 699.8,132.7 699.8,120.4 "/>
<polygon class="st1" points="692.1,140.4 692.1,143.5 695.2,143.5 695.2,149.7 692.1,149.7 692.1,152.8 699.8,152.8 699.8,140.4 "/>
<rect x="692.1" y="200.6" class="st1" width="7.7" height="12.3"/>
<polygon class="st1" points="692.1,180.6 692.1,183.6 695.2,183.6 695.2,189.8 692.1,189.8 692.1,192.9 699.8,192.9 699.8,180.6 "/>
<rect x="692.1" y="240.7" class="st1" width="7.7" height="12.3"/>
<polygon class="st1" points="692.1,220.7 692.1,223.8 695.2,223.8 695.2,229.9 692.1,229.9 692.1,233 699.8,233 699.8,220.7 "/>
<rect x="692.1" y="280.9" class="st1" width="7.7" height="12.3"/>
<polygon class="st1" points="692.1,260.8 692.1,263.9 695.2,263.9 695.2,270.1 692.1,270.1 692.1,273.1 699.8,273.1 699.8,260.8 "/>
<rect x="692.1" y="321" class="st1" width="7.7" height="12.3"/>
<rect x="692.1" y="373.5" class="st1" width="7.7" height="12.3"/>
<polygon class="st1" points="692.1,300.9 692.1,304 695.2,304 695.2,310.2 692.1,310.2 692.1,313.3 699.8,313.3 699.8,300.9 "/>
<polygon class="st1" points="692.1,395.1 692.1,398.1 695.2,398.1 695.2,404.3 692.1,404.3 692.1,407.4 699.8,407.4 699.8,395.1 "/>
<polygon class="st1" points="584.1,373.5 584.1,376.5 587.2,376.5 587.2,382.7 584.1,382.7 584.1,385.8 591.8,385.8 591.8,373.5 "/>
<polygon class="st1" points="584.1,393.5 584.1,396.6 587.2,396.6 587.2,402.8 584.1,402.8 584.1,405.9 591.8,405.9 591.8,393.5 "/>
<polygon class="st1" points="544,160.5 544,163.6 547.1,163.6 547.1,169.8 544,169.8 544,172.8 551.7,172.8 551.7,160.5 "/>
<polygon class="st1" points="544,239.2 544,242.3 547.1,242.3 547.1,248.5 544,248.5 544,251.5 551.7,251.5 551.7,239.2 "/>
<polygon class="st1" points="544,259.3 544,262.3 547.1,262.3 547.1,268.5 544,268.5 544,271.6 551.7,271.6 551.7,259.3 "/>
<polygon class="st1" points="544,299.4 544,302.5 547.1,302.5 547.1,308.6 544,308.6 544,311.7 551.7,311.7 551.7,299.4 "/>
<polygon class="st1" points="544,356.5 544,359.6 547.1,359.6 547.1,365.7 544,365.7 544,368.8 551.7,368.8 551.7,356.5 "/>
<polygon class="st1" points="544,373.5 544,376.5 547.1,376.5 547.1,382.7 544,382.7 544,385.8 551.7,385.8 551.7,373.5 "/>
<rect x="624.2" y="66.4" class="st1" width="7.7" height="12.3"/>
<rect x="624.2" y="86.4" class="st1" width="7.7" height="12.3"/>
<rect x="621.1" y="108" class="st1" width="10.8" height="1.5"/>
<rect x="621.1" y="206.8" class="st1" width="10.8" height="1.5"/>
<rect x="621.1" y="223.8" class="st1" width="10.8" height="1.5"/>
<polygon class="st1" points="624.2,121.9 624.2,125 627.3,125 627.3,131.2 624.2,131.2 624.2,134.3 631.9,134.3 631.9,121.9 "/>
<polygon class="st1" points="624.2,160.5 624.2,163.6 627.3,163.6 627.3,169.8 624.2,169.8 624.2,172.8 631.9,172.8 631.9,160.5 "/>
<polygon class="st1" points="624.2,239.2 624.2,242.3 627.3,242.3 627.3,248.5 624.2,248.5 624.2,251.5 631.9,251.5 631.9,239.2 "/>
<rect x="712.2" y="200.6" class="st1" width="7.7" height="12.3"/>
<rect x="712.2" y="220.7" class="st1" width="7.7" height="12.3"/>
<rect x="709.1" y="242.3" class="st1" width="10.8" height="1.5"/>
<rect x="709.1" y="341" class="st1" width="10.8" height="1.5"/>
<rect x="709.1" y="358" class="st1" width="10.8" height="1.5"/>
<polygon class="st1" points="712.2,256.2 712.2,259.3 715.3,259.3 715.3,265.4 712.2,265.4 712.2,268.5 719.9,268.5 719.9,256.2 "/>
<polygon class="st1" points="712.2,294.8 712.2,297.8 715.3,297.8 715.3,304 712.2,304 712.2,307.1 719.9,307.1 719.9,294.8 "/>
<polygon class="st1" points="712.2,373.5 712.2,376.5 715.3,376.5 715.3,382.7 712.2,382.7 712.2,385.8 719.9,385.8 719.9,373.5 "/>
<rect x="214.4" y="706.5" class="st2" width="827.6" height="2.6"/>
<path class="st2" d="M385.5,404.3v52l7,32c0,0-1,20,0,26s-1,16-7,16s-9,15-9,15s-2,6-7,7s-5,0-5,0l-4,10l-83,55l16,40
	c0,0,25-9,27-12s19,4,19-3s3-25,9-26s56-24,56-24s26-29,28-40s11-42,11-42l25,42v84l-4,45l44-6c0,0-4-28,0-32s10-52,6-58s2-33,0-37
	s-1-33-6-41s-35-90-35-90L385.5,404.3z"/>
<path class="st2" d="M470.5,679.3c0,0-15,25-5,28s29,0,31,0s38,1,38,1s24-5,24-12s-15-7-20-8s-36-13-36-13L470.5,679.3z"/>
<path class="st2" d="M282.1,618.5c0,0-28.9-3.8-27.7,6.5s11.5,26.6,12.3,28.4c0.5,1.2,6.9,17,10.9,27c2.9,7.4,7.3,14,12.8,19.7
	c3.9,3.9,8.2,7.1,11,5.9c6.4-2.8,0.5-16.5-0.6-21.5s-2.4-38.2-2.4-38.2L282.1,618.5z"/>
<path class="st3" d="M483,238.8l32-74c0,0-3-7-10-6c0,0-9.5-24.5-27.5-24.5c0,0-27-15-35,0c0,0-17,15-16,29s2,24,2,24s-16,2-13,10
	s4,8,0,11l-4,3c0,0-83,75-37,185l4,17v16c0,0,101,1,101,0s-2-7,2-11s4-10,4-10s-4-20-2-26s3-32-1-38s-2-54-2-54l9-17l-3-10l-3-10
	L483,238.8z"/>
<path class="st4" d="M474.5,439.3c0,0-12-33-11-39s-2-18-2-18l-4-81c0,0,17-72-21-84c0,0-9.6,4.2-17.5,17.7
	c-7.8,3.5-17.2,12.3-19.5,34.3c-4,39,14,139,23,156s15,29,15,29l9.4-4.2c0.4,0.8,0.6,1.2,0.6,1.2L474.5,439.3z"/>
<circle class="st5" cx="480" cy="226.8" r="3"/>
<rect x="479" y="226.8" class="st0" width="2" height="47"/>
<path class="st6" d="M444,442.8l8,17c0,0,18-6,18-9s-8-16-8-16L444,442.8z"/>
<path class="st3" d="M432.5,217.3c0,0-23,10-27,49s14,139,23,156c9,17,15,29,15,29l27-12c0,0-12-33-11-39s-2-18-2-18l-4-81
	C453.5,301.3,470.5,229.3,432.5,217.3z"/>
</svg>
